<svg xmlns="http://www.w3.org/2000/svg" xmlns:xlink="http://www.w3.org/1999/xlink" aria-hidden="true" role="img" class="iconify iconify--heroicons" width="15" height="15" preserveAspectRatio="xMidYMid meet" viewBox="0 0 20 20"><g fill="none"><g clip-path="url(#IconifyId185044b281a11ec602)" fill="none"><path fill="#867C75" fill-rule="evenodd" d="M10 18a8 8 0 1 0 0-16a8 8 0 0 0 0 16Zm3.25-7.25a.75.75 0 0 0 0-1.5H8.66l2.1-1.95a.75.75 0 1 0-1.02-1.1l-3.5 3.25a.75.75 0 0 0 0 1.1l3.5 3.25a.75.75 0 0 0 1.02-1.1l-2.1-1.95h4.59Z" clip-rule="evenodd"></path></g><defs><clipPath id="IconifyId185044b281a11ec602"><path fill="#fff" d="M0 0h20v20H0z"></path></clipPath></defs></g></svg>